<mxfile host="app.diagrams.net" agent="Mozilla/5.0 (Windows NT 10.0; Win64; x64) AppleWebKit/537.36 (KHTML, like Gecko) Chrome/126.0.0.0 Safari/537.36" version="24.7.10">
  <diagram name="第 1 页" id="QxSWJkYKeBU5G6WuhEDu">
    <mxGraphModel dx="1147" dy="730" grid="1" gridSize="10" guides="1" tooltips="1" connect="1" arrows="1" fold="1" page="1" pageScale="1" pageWidth="827" pageHeight="1169" math="0" shadow="0">
      <root>
        <mxCell id="0" />
        <mxCell id="1" parent="0" />
        <mxCell id="akIslL8WdsMXpC-5W5x6-9" style="edgeStyle=orthogonalEdgeStyle;rounded=0;orthogonalLoop=1;jettySize=auto;html=1;exitX=0.5;exitY=1;exitDx=0;exitDy=0;entryX=0.5;entryY=0;entryDx=0;entryDy=0;fontFamily=Helvetica;fontSize=12;fontColor=default;" edge="1" parent="1" source="akIslL8WdsMXpC-5W5x6-2" target="akIslL8WdsMXpC-5W5x6-3">
          <mxGeometry relative="1" as="geometry" />
        </mxCell>
        <mxCell id="akIslL8WdsMXpC-5W5x6-2" value="RebalanceResourceManager&lt;div&gt;publishEvent(NVNTaskMoveEvent)&lt;/div&gt;" style="rounded=1;whiteSpace=wrap;html=1;" vertex="1" parent="1">
          <mxGeometry x="314" y="30" width="200" height="40" as="geometry" />
        </mxCell>
        <mxCell id="akIslL8WdsMXpC-5W5x6-10" style="edgeStyle=orthogonalEdgeStyle;rounded=0;orthogonalLoop=1;jettySize=auto;html=1;exitX=0.5;exitY=1;exitDx=0;exitDy=0;entryX=0.5;entryY=0;entryDx=0;entryDy=0;fontFamily=Helvetica;fontSize=12;fontColor=default;" edge="1" parent="1" source="akIslL8WdsMXpC-5W5x6-3" target="akIslL8WdsMXpC-5W5x6-4">
          <mxGeometry relative="1" as="geometry" />
        </mxCell>
        <mxCell id="akIslL8WdsMXpC-5W5x6-3" value="查询出所有正在运行的NVN Task" style="rounded=1;whiteSpace=wrap;html=1;" vertex="1" parent="1">
          <mxGeometry x="321" y="100" width="186" height="40" as="geometry" />
        </mxCell>
        <mxCell id="akIslL8WdsMXpC-5W5x6-11" style="edgeStyle=orthogonalEdgeStyle;rounded=0;orthogonalLoop=1;jettySize=auto;html=1;exitX=0.5;exitY=1;exitDx=0;exitDy=0;entryX=0.5;entryY=0;entryDx=0;entryDy=0;fontFamily=Helvetica;fontSize=12;fontColor=default;" edge="1" parent="1" source="akIslL8WdsMXpC-5W5x6-4" target="akIslL8WdsMXpC-5W5x6-5">
          <mxGeometry relative="1" as="geometry" />
        </mxCell>
        <mxCell id="akIslL8WdsMXpC-5W5x6-4" value="将所有运行的NVN Task&lt;div&gt;状态都改为waiting&lt;/div&gt;" style="rounded=0;whiteSpace=wrap;html=1;" vertex="1" parent="1">
          <mxGeometry x="319" y="170" width="190" height="40" as="geometry" />
        </mxCell>
        <mxCell id="akIslL8WdsMXpC-5W5x6-12" style="edgeStyle=orthogonalEdgeStyle;rounded=0;orthogonalLoop=1;jettySize=auto;html=1;exitX=0.5;exitY=1;exitDx=0;exitDy=0;entryX=0.5;entryY=0;entryDx=0;entryDy=0;fontFamily=Helvetica;fontSize=12;fontColor=default;" edge="1" parent="1" source="akIslL8WdsMXpC-5W5x6-5" target="akIslL8WdsMXpC-5W5x6-6">
          <mxGeometry relative="1" as="geometry" />
        </mxCell>
        <mxCell id="akIslL8WdsMXpC-5W5x6-17" value="Yes" style="edgeLabel;html=1;align=center;verticalAlign=middle;resizable=0;points=[];strokeColor=default;fontFamily=Helvetica;fontSize=12;fontColor=default;fillColor=default;" vertex="1" connectable="0" parent="akIslL8WdsMXpC-5W5x6-12">
          <mxGeometry x="-0.1333" y="2" relative="1" as="geometry">
            <mxPoint x="-2" y="-3" as="offset" />
          </mxGeometry>
        </mxCell>
        <mxCell id="akIslL8WdsMXpC-5W5x6-15" style="edgeStyle=orthogonalEdgeStyle;rounded=0;orthogonalLoop=1;jettySize=auto;html=1;exitX=1;exitY=0.5;exitDx=0;exitDy=0;fontFamily=Helvetica;fontSize=12;fontColor=default;" edge="1" parent="1" source="akIslL8WdsMXpC-5W5x6-5">
          <mxGeometry relative="1" as="geometry">
            <mxPoint x="410" y="520" as="targetPoint" />
            <Array as="points">
              <mxPoint x="520" y="290" />
              <mxPoint x="520" y="520" />
            </Array>
          </mxGeometry>
        </mxCell>
        <mxCell id="akIslL8WdsMXpC-5W5x6-16" value="No" style="edgeLabel;html=1;align=center;verticalAlign=middle;resizable=0;points=[];strokeColor=default;fontFamily=Helvetica;fontSize=12;fontColor=default;fillColor=default;" vertex="1" connectable="0" parent="akIslL8WdsMXpC-5W5x6-15">
          <mxGeometry x="-0.8174" y="-2" relative="1" as="geometry">
            <mxPoint as="offset" />
          </mxGeometry>
        </mxCell>
        <mxCell id="akIslL8WdsMXpC-5W5x6-5" value="查看task任务的源库绑定的算子编号是否有变动" style="rhombus;whiteSpace=wrap;html=1;" vertex="1" parent="1">
          <mxGeometry x="370" y="240" width="88" height="100" as="geometry" />
        </mxCell>
        <mxCell id="akIslL8WdsMXpC-5W5x6-13" style="edgeStyle=orthogonalEdgeStyle;rounded=0;orthogonalLoop=1;jettySize=auto;html=1;exitX=0.5;exitY=1;exitDx=0;exitDy=0;entryX=0.5;entryY=0;entryDx=0;entryDy=0;fontFamily=Helvetica;fontSize=12;fontColor=default;" edge="1" parent="1" source="akIslL8WdsMXpC-5W5x6-6" target="akIslL8WdsMXpC-5W5x6-7">
          <mxGeometry relative="1" as="geometry" />
        </mxCell>
        <mxCell id="akIslL8WdsMXpC-5W5x6-6" value="关闭原算子资源上的NVN任务" style="whiteSpace=wrap;html=1;backgroundOutline=1;" vertex="1" parent="1">
          <mxGeometry x="329" y="370" width="170" height="40" as="geometry" />
        </mxCell>
        <mxCell id="akIslL8WdsMXpC-5W5x6-14" style="edgeStyle=orthogonalEdgeStyle;rounded=0;orthogonalLoop=1;jettySize=auto;html=1;exitX=0.5;exitY=1;exitDx=0;exitDy=0;entryX=0.5;entryY=0;entryDx=0;entryDy=0;fontFamily=Helvetica;fontSize=12;fontColor=default;" edge="1" parent="1" source="akIslL8WdsMXpC-5W5x6-7" target="akIslL8WdsMXpC-5W5x6-8">
          <mxGeometry relative="1" as="geometry" />
        </mxCell>
        <mxCell id="akIslL8WdsMXpC-5W5x6-7" value="将task状态改为waiting，重新入task执行队列，等待下发" style="rounded=0;whiteSpace=wrap;html=1;" vertex="1" parent="1">
          <mxGeometry x="328" y="450" width="173" height="50" as="geometry" />
        </mxCell>
        <mxCell id="akIslL8WdsMXpC-5W5x6-8" value="end" style="ellipse;whiteSpace=wrap;html=1;strokeColor=default;align=center;verticalAlign=middle;fontFamily=Helvetica;fontSize=12;fontColor=default;fillColor=default;" vertex="1" parent="1">
          <mxGeometry x="379" y="530" width="70" height="40" as="geometry" />
        </mxCell>
        <mxCell id="akIslL8WdsMXpC-5W5x6-18" value="有状态为逻辑删除的任务，则从数据表中删除" style="rounded=0;whiteSpace=wrap;html=1;strokeColor=default;align=center;verticalAlign=middle;fontFamily=Helvetica;fontSize=12;fontColor=default;fillColor=default;" vertex="1" parent="1">
          <mxGeometry x="173" y="280" width="146" height="40" as="geometry" />
        </mxCell>
      </root>
    </mxGraphModel>
  </diagram>
</mxfile>
